<?xml version="1.0" encoding="UTF-8"?>
<svg id="Layer_1" data-name="Layer 1" xmlns="http://www.w3.org/2000/svg" viewBox="0 0 1526.31 1083.03">
  <defs>
    <style>
      .cls-1 {
        font-family: CeraPro-Light, 'Cera Pro';
        font-size: 98.55px;
        font-weight: 300;
      }

      .cls-1, .cls-2 {
        fill: #cd6a35;
      }

      .cls-3 {
        letter-spacing: .17em;
      }

      .cls-4 {
        letter-spacing: .2em;
      }
    </style>
  </defs>
  <path class="cls-2" d="M789.09,291.12v97.73l-.47,97.73c2.81,65.15,13.57,109.95,24.33,136.01,10.76,21.17,24.79,42.76,55.2,52.12l.94.81v.81c-11.7.81-23.39.81-35.09.81s-25.73-.81-33.68-7.33c-24.79-17.51-35.55-75.33-40.7-157.59-3.74,56.6-9.82,141.3-43.51,162.47-7.02,3.26-14.97,4.48-23.39,4.48-12.16,0-25.73-.41-43.98-1.22l-.94-1.22c10.76-3.26,22.46-6.52,34.15-17.1,29.94-25.65,39.3-71.67,43.51-116.05h.47c1.87-17.1,2.81-36.24,3.27-52.94v-246.36c0-4.48,0-24.03-10.76-38.68-15.44-21.17-42.1-32.58-81.87-32.58-10.76,0-21.05.41-33.22.81-78.13,4.07-118.83,18.73-136.6,57.42h-4.68v-76.15h598.34v76.96h-4.21c-18.71-41.53-64.09-58.64-152.98-59.45-40.7-.41-73.92,2.04-91.69,18.73-10.76,8.55-18.24,22.4-20.58,38.28-1.87,19.95-1.87,41.94-1.87,61.49h0Z"/>
  <text class="cls-1" transform="translate(493.25 894.9)"><tspan class="cls-4" x="0" y="0">O</tspan><tspan class="cls-3" x="96.87" y="0">R</tspan><tspan class="cls-4" x="174.63" y="0">THODONTICS</tspan></text>
  <g>
    <path class="cls-2" d="M174.81,811.22h-88.33v13.95h.66c2.66-7.31,10.96-10.96,24.24-10.96,9.63,0,14.61,2.99,14.61,12.29v37.52c0,10.96-1.66,27.89-13.28,30.22v.66h6.97c6.97,0,10.29-5.31,10.96-28.22,1.33,21.92,3.65,28.22,10.29,28.22h7.31v-.33c-9.63-1.99-12.95-14.94-12.95-31.21v-37.85c0-8.3,5.31-11.29,14.94-11.29,10.29.33,20.59,1.99,23.91,11.29h.66s0-14.28,0-14.28Z"/>
    <path class="cls-2" d="M241.56,847.58c-9.46-3.68-29.96-9.46-29.96-21.03,0-7.89,6.83-14.72,20.5-14.72,12.62,0,25.76,5.78,27.86,18.4h1.05v-19.45c-1.05.53-2.63,1.05-5.78,1.05-6.31,0-11.57-1.58-22.08-2.1-17.35,0-29.44,8.41-29.44,19.98s6.31,15.77,14.72,19.98c8.94,4.73,31.02,9.99,35.22,17.35,5.78,9.46,2.1,25.76-19.45,25.76-12.62,0-27.86-4.73-30.49-22.08h-.53v21.55h.53c.53-1.05,1.58-2.1,3.15-2.1,4.73,0,11.04,4.73,27.86,4.73,18.93,0,29.96-7.89,29.96-22.08s-13.14-19.98-23.13-23.66"/>
    <path class="cls-2" d="M316.98,861.78c7.36-17.87,17.35-42.06,17.35-42.06,4.21,9.46,16.82,42.06,16.82,42.06-9.99,2.1-27.86,1.58-34.17,0M371.65,882.8c-5.26-11.57-29.96-71.5-29.96-71.5h-21.03v.53c11.04.53,10.51,6.31,8.41,11.57l-21.55,53.1c-4.21,10.51-7.36,16.82-17.35,17.35v1.05h25.23v-.53c-8.94-.53-9.99-4.73-6.83-12.09l6.83-17.35h36.8l6.83,17.87c3.15,7.89,0,10.51-6.83,11.04v1.05h32.07v-.53c-7.89-1.05-9.99-4.21-12.62-10.51"/>
    <path class="cls-2" d="M428.42,873.34v-36.8c0-21.03,1.58-23.13,12.09-24.18v-.53h-36.8v1.05c11.57,0,13.67,6.31,13.67,16.82v40.48c0,17.35-2.1,23.13-12.62,23.66v1.05h33.64v-.53c-8.94-.53-9.99-4.21-9.99-21.03"/>
  </g>
</svg>