<?xml version="1.0" encoding="UTF-8"?>
<svg id="Layer_1" data-name="Layer 1" xmlns="http://www.w3.org/2000/svg" viewBox="0 0 1550.22 768">
  <defs>
    <style>
      .cls-1 {
        fill: #cd6a35;
      }
    </style>
  </defs>
  <g>
    <path class="cls-1" d="M81.58,565.66c30.56-.5,57.29,25.39,56.62,56.79.67,31.23-26.06,57.45-56.62,56.79-30.9.67-57.12-25.55-56.45-56.79-.67-31.4,25.55-57.29,56.45-56.79ZM81.74,573.68c-26.56-.5-47.93,21.71-47.43,48.6-.5,27.22,20.88,49.1,47.43,48.77,26.22.5,47.77-21.88,47.27-48.77.5-26.89-21.04-49.1-47.27-48.6Z"/>
    <path class="cls-1" d="M256.94,677.56l-37.08-49.44h-26.89v49.44h-8.68v-110.23h37.41c20.71,0,33.4,12.86,33.4,30.23,0,15.37-9.35,27.06-25.22,29.9l37.25,50.11h-10.19ZM192.98,620.28h28.39c15.87,0,24.72-9.19,24.72-22.55s-8.85-22.55-24.72-22.55h-28.39v45.1Z"/>
    <path class="cls-1" d="M331.44,575.18h-40.25v-7.85h89.35v7.85h-40.42v102.38h-8.68v-102.38Z"/>
    <path class="cls-1" d="M421.79,567.33h8.68v46.76h67.81v-46.76h8.68v110.23h-8.68v-55.62h-67.81v55.62h-8.68v-110.23Z"/>
    <path class="cls-1" d="M609.52,565.66c30.56-.5,57.29,25.39,56.62,56.79.67,31.23-26.05,57.45-56.62,56.79-30.9.67-57.12-25.55-56.45-56.79-.67-31.4,25.55-57.29,56.45-56.79ZM609.69,573.68c-26.56-.5-47.93,21.71-47.43,48.6-.5,27.22,20.88,49.1,47.43,48.77,26.22.5,47.77-21.88,47.27-48.77.5-26.89-21.04-49.1-47.27-48.6Z"/>
    <path class="cls-1" d="M712.24,567.33h31.07c38.08,0,59.96,23.21,59.96,54.95.5,31.4-22.38,55.62-59.96,55.28h-31.07v-110.23h0ZM743.3,669.72c32.23,0,50.94-20.71,50.94-47.43s-18.54-47.1-50.94-47.1h-22.38v94.53h22.38Z"/>
    <path class="cls-1" d="M898.29,565.66c30.57-.5,57.29,25.39,56.62,56.79.67,31.23-26.05,57.45-56.62,56.79-30.9.67-57.12-25.55-56.45-56.79-.67-31.4,25.55-57.29,56.45-56.79ZM898.46,573.68c-26.56-.5-47.93,21.71-47.43,48.6-.5,27.22,20.88,49.1,47.43,48.77,26.22.5,47.77-21.88,47.27-48.77.5-26.89-21.04-49.1-47.27-48.6Z"/>
    <path class="cls-1" d="M1086.19,567.33v111.9h-3.51l-72.99-93.36v91.69h-8.69v-111.9h3.34l73.15,94.03v-92.36h8.7Z"/>
    <path class="cls-1" d="M1167.69,575.18h-40.25v-7.85h89.35v7.85h-40.42v102.38h-8.68v-102.38h0Z"/>
    <path class="cls-1" d="M1258.05,567.33h8.69v110.23h-8.69v-110.23Z"/>
    <path class="cls-1" d="M1369.12,565.66c18.54,0,34.74,8.52,44.59,22.38l-6.51,5.18c-8.69-12.19-22.05-19.54-37.91-19.54-26.56-.5-47.93,21.71-47.43,48.6-.5,27.22,20.88,49.1,47.43,48.77,15.87,0,29.23-7.18,37.91-19.37l6.51,5.18c-9.85,13.86-26.05,22.38-44.59,22.38-30.9.67-57.12-25.55-56.45-56.79-.67-31.4,25.55-57.29,56.45-56.79h0Z"/>
    <path class="cls-1" d="M1457.8,651.01c7.85,12.19,18.71,20.04,33.24,20.04s25.05-8.02,25.05-20.88c-.5-11.86-5.68-15.37-20.38-22.72l-12.53-6.01c-13.86-6.35-23.72-12.53-24.38-28.56,0-16.87,14.53-27.22,32.07-27.22,14.03,0,25.89,6.85,33.07,17.54l-6.51,4.84c-6.68-9.35-15.87-14.36-26.56-14.36-6.18,0-11.69,1.5-16.2,4.68s-6.85,7.85-6.85,14.03c.67,11.69,6.35,14.87,19.54,21.38l12.36,6.01c17.2,8.02,25.39,15.7,25.39,30.23,0,17.37-14.87,29.23-34.24,29.23-16.7,0-30.9-8.85-39.58-23.38l6.51-4.84h0Z"/>
  </g>
  <g>
    <path class="cls-1" d="M981.94,82.59h16.37l165.49,332.8h-37.28c-13.18,0-23.64-6.36-29.55-18.19l-21.37-45.01h-170.49l-21.82,45.01c-5.46,11.82-16.37,18.19-29.55,18.19h-36.83l165.04-332.8h0ZM1058.78,313.09l-68.65-146.39-68.2,146.39h136.85Z"/>
    <path class="cls-1" d="M293.94,126.23h-98.2v-17.73c0-15.91,10-25.91,25.91-25.91h223.68v17.73c0,15.46-10.46,25.91-25.91,25.91h-73.2v263.24c0,15.91-10.46,25.91-25.91,25.91h-26.37V126.23h0Z"/>
    <path class="cls-1" d="M490.88,381.74l11.37-16.37c8.64-13.19,21.82-14.55,36.37-6.82,25.91,14.55,56.83,24.55,88.2,24.55,47.28,0,73.65-20.91,73.65-52.74,0-38.64-39.1-46.37-84.11-55.47-39.55-7.73-125.48-17.28-125.48-93.2s69.56-99.11,123.66-99.11c48.65,0,86.84,15,118.21,38.19l-11.37,15.91c-8.64,13.18-22.28,15.46-36.37,8.64-23.64-11.82-46.83-18.19-73.2-18.19-27.73,0-68.65,11.37-68.65,52.28s56.38,45.92,93.2,52.74c49.1,8.18,116.39,21.37,116.39,96.38,0,66.38-50.92,99.11-124.12,99.11-61.38,0-102.75-18.64-137.76-45.92v.02Z"/>
    <path class="cls-1" d="M1267.49,387.65V82.59h26.37c15.46,0,25.91,10,25.91,25.91v306.88h-26.37c-16.37,0-25.91-10-25.91-27.73Z"/>
  </g>
</svg>
