<?xml version="1.0" encoding="UTF-8"?>
<svg id="Layer_1" data-name="Layer 1" xmlns="http://www.w3.org/2000/svg" viewBox="0 0 4371.67 385.95">
  <defs>
    <style>
      .cls-1 {
        fill: #cd6a35;
      }
    </style>
  </defs>
  <path class="cls-1" d="M119.9,94H39.67v-14.49c0-13,8.17-21.17,21.17-21.17h182.73v14.49c0,12.63-8.54,21.17-21.17,21.17h-59.8v215.05c0,13-8.54,21.17-21.17,21.17h-21.54V94Z"/>
  <path class="cls-1" d="M267.34,298.27l9.29-13.37c7.06-10.77,17.83-11.88,29.71-5.57,21.17,11.88,46.43,20.06,72.05,20.06,38.63,0,60.17-17.08,60.17-43.08,0-31.57-31.94-37.88-68.71-45.31-32.31-6.31-102.51-14.11-102.51-76.14s56.83-80.97,101.02-80.97c39.74,0,70.94,12.26,96.57,31.2l-9.29,13c-7.06,10.77-18.2,12.63-29.71,7.06-19.31-9.66-38.26-14.86-59.8-14.86-22.66,0-56.08,9.29-56.08,42.71s46.06,37.51,76.14,43.08c40.11,6.68,95.08,17.46,95.08,78.74,0,54.23-41.6,80.97-101.4,80.97-50.14,0-83.94-15.23-112.54-37.51Z"/>
  <path class="cls-1" d="M645.43,58.34h13.37l135.19,271.87h-30.45c-10.77,0-19.31-5.2-24.14-14.86l-17.46-36.77h-139.28l-17.83,36.77c-4.46,9.66-13.37,14.86-24.14,14.86h-30.08L645.43,58.34ZM708.19,246.64l-56.08-119.59-55.71,119.59h111.8Z"/>
  <path class="cls-1" d="M844.5,307.56V58.34h21.54c12.63,0,21.17,8.17,21.17,21.17v250.7h-21.54c-13.37,0-21.17-8.17-21.17-22.66Z"/>
  <path class="cls-1" d="M1237.4,55.33c75.08-1.23,140.72,62.36,139.08,139.49,1.64,76.72-64,141.13-139.08,139.49-75.9,1.64-140.31-62.77-138.67-139.49-1.64-77.13,62.77-140.72,138.67-139.49ZM1237.81,75.02c-65.23-1.23-117.75,53.34-116.52,119.39-1.23,66.87,51.28,120.62,116.52,119.8,64.41,1.23,117.34-53.75,116.11-119.8,1.23-66.05-51.69-120.62-116.11-119.39Z"/>
  <path class="cls-1" d="M1627.15,330.21l-91.08-121.44h-66.05v121.44h-21.33V59.43h91.9c50.87,0,82.05,31.59,82.05,74.26,0,37.75-22.98,66.46-61.95,73.44l91.49,123.08h-25.03ZM1470.02,189.49h69.75c38.98,0,60.72-22.57,60.72-55.39s-21.74-55.39-60.72-55.39h-69.75v110.77Z"/>
  <path class="cls-1" d="M1769.1,78.71h-98.88v-19.28h219.5v19.28h-99.29v251.5h-21.33V78.71Z"/>
  <path class="cls-1" d="M1950.02,59.43h21.33v114.88h166.57V59.43h21.33v270.78h-21.33v-136.62h-166.57v136.62h-21.33V59.43Z"/>
  <path class="cls-1" d="M2370.14,55.33c75.08-1.23,140.72,62.36,139.08,139.49,1.64,76.72-64,141.13-139.08,139.49-75.9,1.64-140.31-62.77-138.67-139.49-1.64-77.13,62.77-140.72,138.67-139.49ZM2370.55,75.02c-65.23-1.23-117.75,53.34-116.52,119.39-1.23,66.87,51.28,120.62,116.52,119.8,64.41,1.23,117.34-53.75,116.11-119.8,1.23-66.05-51.69-120.62-116.11-119.39Z"/>
  <path class="cls-1" d="M2581.41,59.43h76.31c93.54,0,147.29,57.03,147.29,134.98,1.23,77.13-54.98,136.62-147.29,135.8h-76.31V59.43ZM2657.73,310.93c79.18,0,125.13-50.87,125.13-116.52s-45.54-115.7-125.13-115.7h-54.98v232.21h54.98Z"/>
  <path class="cls-1" d="M2997.42,55.33c75.08-1.23,140.72,62.36,139.08,139.49,1.64,76.72-64,141.13-139.08,139.49-75.9,1.64-140.31-62.77-138.67-139.49-1.64-77.13,62.77-140.72,138.67-139.49ZM2997.83,75.02c-65.23-1.23-117.75,53.34-116.52,119.39-1.23,66.87,51.28,120.62,116.52,119.8,64.41,1.23,117.34-53.75,116.11-119.8,1.23-66.05-51.69-120.62-116.11-119.39Z"/>
  <path class="cls-1" d="M3417.94,59.43v274.88h-8.62l-179.29-229.34v225.24h-21.33V55.33h8.21l179.7,230.98V59.43h21.33Z"/>
  <path class="cls-1" d="M3577.12,78.71h-98.88v-19.28h219.5v19.28h-99.29v251.5h-21.33V78.71Z"/>
  <path class="cls-1" d="M3758.04,59.43h21.33v270.78h-21.33V59.43Z"/>
  <path class="cls-1" d="M3989.84,55.33c45.54,0,85.34,20.92,109.54,54.98l-16,12.72c-21.33-29.95-54.16-48-93.13-48-65.23-1.23-117.75,53.34-116.52,119.39-1.23,66.87,51.28,120.62,116.52,119.8,38.98,0,71.8-17.64,93.13-47.59l16,12.72c-24.21,34.05-64,54.98-109.54,54.98-75.9,1.64-140.31-62.77-138.67-139.49-1.64-77.13,62.77-140.72,138.67-139.49Z"/>
  <path class="cls-1" d="M4166.66,264.98c19.28,29.95,45.95,49.23,81.64,49.23s61.54-19.69,61.54-51.28c-1.23-29.13-13.95-37.75-50.05-55.8l-30.77-14.77c-34.05-15.59-58.26-30.77-59.9-70.16,0-41.44,35.69-66.87,78.77-66.87,34.46,0,63.59,16.82,81.23,43.08l-16,11.9c-16.41-22.98-38.98-35.28-65.23-35.28-15.18,0-28.72,3.69-39.8,11.49s-16.82,19.28-16.82,34.46c1.64,28.72,15.59,36.51,48,52.51l30.36,14.77c42.26,19.69,62.36,38.57,62.36,74.26,0,42.67-36.51,71.8-84.11,71.8-41.03,0-75.9-21.74-97.23-57.44l16-11.9Z"/>
</svg>
