<?xml version="1.0" encoding="UTF-8"?>
<svg id="Layer_1" data-name="Layer 1" xmlns="http://www.w3.org/2000/svg" viewBox="0 0 1500 1083.03">
  <defs>
    <style>
      .cls-1 {
        letter-spacing: .2em;
      }

      .cls-2, .cls-3 {
        fill: #cd6a35;
      }

      .cls-4 {
        letter-spacing: .2em;
      }

      .cls-5 {
        letter-spacing: .18em;
      }

      .cls-3 {
        font-family: CeraPro-Light, 'Cera Pro';
        font-size: 139.17px;
        font-weight: 300;
      }
    </style>
  </defs>
  <text class="cls-3" transform="translate(60.27 806.92)"><tspan class="cls-4" x="0" y="0">O</tspan><tspan class="cls-5" x="136.81" y="0">R</tspan><tspan class="cls-1" x="246.61" y="0">THODONTICS</tspan></text>
  <g>
    <path class="cls-2" d="M396.78,247.79H45v55.54h2.65c10.58-29.09,43.64-43.64,96.54-43.64,38.35,0,58.19,11.9,58.19,48.93v149.44c0,43.64-6.61,111.09-52.9,120.35v2.64h27.77c27.77,0,41-21.16,43.64-112.41,5.29,87.28,14.55,112.41,41,112.41h29.09v-1.32c-38.35-7.93-51.58-59.51-51.58-124.31v-150.76c0-33.06,21.16-44.96,59.51-44.96,41,1.32,81.99,7.93,95.22,44.96h2.65s0-56.87,0-56.87Z"/>
    <path class="cls-2" d="M662.62,392.63c-37.69-14.66-119.34-37.69-119.34-83.75,0-31.41,27.22-58.62,81.66-58.62,50.25,0,102.59,23.03,110.97,73.28h4.19v-77.47c-4.19,2.09-10.47,4.19-23.03,4.19-25.12,0-46.06-6.28-87.94-8.37-69.09,0-117.25,33.5-117.25,79.56s25.12,62.81,58.62,79.56c35.59,18.84,123.53,39.78,140.28,69.09,23.03,37.69,8.37,102.59-77.47,102.59-50.25,0-110.97-18.84-121.44-87.94h-2.09v85.84h2.09c2.09-4.19,6.28-8.37,12.56-8.37,18.84,0,43.97,18.84,110.97,18.84,75.37,0,119.34-31.41,119.34-87.94s-52.34-79.56-92.12-94.22"/>
    <path class="cls-2" d="M963.02,449.16c29.31-71.19,69.09-167.5,69.09-167.5,16.75,37.69,67,167.5,67,167.5-39.78,8.37-110.97,6.28-136.09,0M1180.77,532.91c-20.94-46.06-119.34-284.75-119.34-284.75h-83.75v2.09c43.97,2.09,41.87,25.12,33.5,46.06l-85.84,211.47c-16.75,41.87-29.31,67-69.09,69.09v4.19h100.5v-2.09c-35.59-2.09-39.78-18.84-27.22-48.16l27.22-69.09h146.56l27.22,71.19c12.56,31.41,0,41.87-27.22,43.97v4.19h127.72v-2.09c-31.41-4.19-39.78-16.75-50.25-41.87"/>
    <path class="cls-2" d="M1406.84,495.22v-146.56c0-83.75,6.28-92.12,48.16-96.31v-2.09h-146.56v4.19c46.06,0,54.44,25.12,54.44,67v161.22c0,69.09-8.37,92.12-50.25,94.22v4.19h134v-2.09c-35.59-2.09-39.78-16.75-39.78-83.75"/>
  </g>
</svg>