<?xml version="1.0" encoding="UTF-8"?>
<svg id="Layer_1" data-name="Layer 1" xmlns="http://www.w3.org/2000/svg" viewBox="0 0 4371.67 675.56">
  <defs>
    <style>
      .cls-1 {
        font-family: CeraPro-Light, 'Cera Pro';
        font-size: 360.34px;
        font-weight: 300;
      }

      .cls-1, .cls-2 {
        fill: #cd6a35;
      }

      .cls-3 {
        letter-spacing: .05em;
      }

      .cls-4 {
        letter-spacing: .07em;
      }
    </style>
  </defs>
  <text class="cls-1" transform="translate(1264.95 481.41)"><tspan class="cls-4" x="0" y="0">O</tspan><tspan class="cls-3" x="309.17" y="0">R</tspan><tspan class="cls-4" x="548.44" y="0">THODONTICS</tspan></text>
  <g>
    <path class="cls-2" d="M294.54,220.42H15.22v44.1h2.1c8.4-23.1,34.65-34.65,76.66-34.65,30.45,0,46.2,9.45,46.2,38.85v118.66c0,34.65-5.25,88.21-42,95.56v2.1h22.05c22.05,0,32.55-16.8,34.65-89.26,4.2,69.31,11.55,89.26,32.55,89.26h23.1v-1.05c-30.45-6.3-40.95-47.25-40.95-98.71v-119.71c0-26.25,16.8-35.7,47.25-35.7,32.55,1.05,65.1,6.3,75.61,35.7h2.1s0-45.15,0-45.15Z"/>
    <path class="cls-2" d="M505.62,335.42c-29.92-11.64-94.76-29.92-94.76-66.5,0-24.94,21.61-46.55,64.84-46.55,39.9,0,81.46,18.29,88.11,58.19h3.32v-61.51c-3.32,1.66-8.31,3.32-18.29,3.32-19.95,0-36.57-4.99-69.82-6.65-54.86,0-93.1,26.6-93.1,63.17s19.95,49.87,46.55,63.17c28.26,14.96,98.08,31.59,111.38,54.86,18.29,29.92,6.65,81.46-61.51,81.46-39.9,0-88.11-14.96-96.42-69.82h-1.66v68.16h1.66c1.66-3.32,4.99-6.65,9.97-6.65,14.96,0,34.91,14.96,88.11,14.96,59.85,0,94.76-24.94,94.76-69.82s-41.56-63.17-73.15-74.81"/>
    <path class="cls-2" d="M744.14,380.3c23.27-56.52,54.86-133,54.86-133,13.3,29.92,53.2,133,53.2,133-31.59,6.65-88.11,4.99-108.06,0M917.04,446.8c-16.62-36.57-94.76-226.09-94.76-226.09h-66.5v1.66c34.91,1.66,33.25,19.95,26.6,36.57l-68.16,167.91c-13.3,33.25-23.27,53.2-54.86,54.86v3.32h79.8v-1.66c-28.26-1.66-31.59-14.96-21.61-38.24l21.61-54.86h116.37l21.61,56.52c9.97,24.94,0,33.25-21.61,34.91v3.32h101.41v-1.66c-24.94-3.32-31.59-13.3-39.9-33.25"/>
    <path class="cls-2" d="M1096.54,416.88v-116.37c0-66.5,4.99-73.15,38.24-76.47v-1.66h-116.37v3.32c36.57,0,43.22,19.95,43.22,53.2v128.01c0,54.86-6.65,73.15-39.9,74.81v3.32h106.4v-1.66c-28.26-1.66-31.59-13.3-31.59-66.5"/>
  </g>
</svg>